<svg width="285" height="97" viewBox="0 0 285 97" fill="none" xmlns="http://www.w3.org/2000/svg">
<mask id="mask0_1_437" style="mask-type:luminance" maskUnits="userSpaceOnUse" x="106" y="27" width="165" height="41">
<path d="M270.397 27H106V67.4167H270.397V27Z" fill="white"/>
</mask>
<g mask="url(#mask0_1_437)">
<mask id="mask1_1_437" style="mask-type:luminance" maskUnits="userSpaceOnUse" x="108" y="27" width="12" height="30">
<path d="M108.695 27.1158H119.475V56.6389H108.695V27.1158Z" fill="white"/>
</mask>
<g mask="url(#mask1_1_437)">
<path d="M116.853 28.8095V54.4067H110.999V28.8095H116.853Z" fill="#04207A"/>
</g>
<mask id="mask2_1_437" style="mask-type:luminance" maskUnits="userSpaceOnUse" x="119" y="27" width="25" height="30">
<path d="M119.475 27.1158H143.73V56.6389H119.475V27.1158Z" fill="white"/>
</mask>
<g mask="url(#mask2_1_437)">
<path d="M126.411 38.5348V54.4067H120.557V28.8095H126.411L136.601 44.6815H136.643V28.8095H142.497V54.4067H136.643L126.453 38.5348H126.411Z" fill="#04207A"/>
</g>
<mask id="mask3_1_437" style="mask-type:luminance" maskUnits="userSpaceOnUse" x="143" y="27" width="20" height="30">
<path d="M143.73 27.1158H162.596V56.6389H143.73V27.1158Z" fill="white"/>
</mask>
<g mask="url(#mask3_1_437)">
<path d="M161.013 28.8095V33.9458H152.044V38.9979H160.339V44.1342H152.044V54.4067H146.19V28.8095H161.013Z" fill="#04207A"/>
</g>
<mask id="mask4_1_437" style="mask-type:luminance" maskUnits="userSpaceOnUse" x="162" y="27" width="25" height="30">
<path d="M162.596 27.1158H186.851V56.6389H162.596V27.1158Z" fill="white"/>
</mask>
<g mask="url(#mask4_1_437)">
<path d="M163.786 28.8095H172.966C175.408 28.8095 177.398 29.4726 178.945 30.7882C180.514 32.1144 181.303 33.9879 181.303 36.4297C181.303 38.3137 180.819 39.882 179.872 41.145C178.945 42.408 177.661 43.3132 176.04 43.8395L184.883 54.4067H177.429L169.639 44.3026V54.4067H163.786V28.8095ZM169.639 40.1767H170.313C170.839 40.1767 171.292 40.1662 171.66 40.1346C172.05 40.1135 172.481 40.0399 172.966 39.9241C173.439 39.7873 173.818 39.6083 174.103 39.3768C174.376 39.1558 174.618 38.8295 174.818 38.4085C175.04 37.9664 175.155 37.4296 175.155 36.8086C175.155 36.1982 175.04 35.6719 174.818 35.2509C174.618 34.8089 174.376 34.4721 174.103 34.2405C173.818 34.0195 173.439 33.8511 172.966 33.7353C172.481 33.5985 172.05 33.5248 171.66 33.5248C171.292 33.5037 170.839 33.4827 170.313 33.4827H169.639V40.1767Z" fill="#04207A"/>
</g>
<mask id="mask5_1_437" style="mask-type:luminance" maskUnits="userSpaceOnUse" x="181" y="27" width="31" height="30">
<path d="M181.461 27.1158H211.106V56.6389H181.461V27.1158Z" fill="white"/>
</mask>
<g mask="url(#mask5_1_437)">
<path d="M199.017 28.8095L209.334 54.4067H203.102L201.207 49.2704H191.437L189.542 54.4067H183.268L193.627 28.8095H199.017ZM199.185 44.1763L196.364 36.7244H196.28L193.416 44.1763H199.185Z" fill="#04207A"/>
</g>
<mask id="mask6_1_437" style="mask-type:luminance" maskUnits="userSpaceOnUse" x="205" y="27" width="23" height="30">
<path d="M205.716 27.1158H227.277V56.6389H205.716V27.1158Z" fill="white"/>
</mask>
<g mask="url(#mask6_1_437)">
<path d="M207.245 33.9458V28.8095H225.226V33.9458H219.162V54.4067H213.308V33.9458H207.245Z" fill="#04207A"/>
</g>
<mask id="mask7_1_437" style="mask-type:luminance" maskUnits="userSpaceOnUse" x="227" y="27" width="17" height="30">
<path d="M227.277 27.1158H243.447V56.6389H227.277V27.1158Z" fill="white"/>
</mask>
<g mask="url(#mask7_1_437)">
<path d="M241.994 28.8095V33.9458H233.193V38.9979H241.615V44.1342H233.193V49.2704H241.994V54.4067H227.34V28.8095H241.994Z" fill="#04207A"/>
</g>
<mask id="mask8_1_437" style="mask-type:luminance" maskUnits="userSpaceOnUse" x="243" y="27" width="25" height="30">
<path d="M243.447 27.1158H267.702V56.6389H243.447V27.1158Z" fill="white"/>
</mask>
<g mask="url(#mask8_1_437)">
<path d="M258.983 49.1441C259.846 49.1441 260.709 49.0178 261.551 48.7652C262.394 48.4916 263.004 48.2179 263.404 47.9653L263.994 47.5443L266.478 52.5122C266.394 52.5753 266.278 52.6595 266.141 52.7648C265.994 52.8806 265.657 53.0806 265.131 53.3542C264.594 53.6384 264.036 53.8805 263.446 54.0699C262.857 54.2699 262.067 54.4488 261.088 54.6172C260.099 54.7856 259.088 54.8698 258.056 54.8698C255.698 54.8698 253.445 54.3015 251.319 53.1437C249.182 51.9649 247.455 50.3545 246.139 48.3021C244.844 46.2602 244.202 44.0394 244.202 41.6502C244.202 39.8609 244.581 38.1348 245.339 36.4718C246.097 34.8194 247.108 33.3985 248.371 32.2197C249.655 31.0408 251.15 30.1041 252.835 29.3989C254.54 28.7043 256.288 28.3464 258.056 28.3464C259.709 28.3464 261.235 28.5464 262.646 28.9358C264.046 29.3358 265.025 29.7252 265.594 30.1146L266.478 30.704L263.994 35.6719C263.846 35.5351 263.625 35.3772 263.32 35.2088C263.036 35.0404 262.457 34.8194 261.593 34.5352C260.72 34.23 259.846 34.0721 258.983 34.0721C257.572 34.0721 256.309 34.3142 255.193 34.7878C254.066 35.2404 253.182 35.8403 252.54 36.5981C251.887 37.3349 251.382 38.1348 251.024 38.9979C250.687 39.8399 250.519 40.7135 250.519 41.6081C250.519 43.5447 251.245 45.2919 252.708 46.8286C254.161 48.3758 256.256 49.1441 258.983 49.1441Z" fill="#04207A"/>
</g>
</g>
<mask id="mask9_1_437" style="mask-type:luminance" maskUnits="userSpaceOnUse" x="16" y="8" width="79" height="79">
<path d="M16.1702 8H94.3262V86.0652H16.1702V8Z" fill="white"/>
</mask>
<g mask="url(#mask9_1_437)">
<path d="M72.2922 13.3678C77.0085 15.7886 81.3459 19.304 84.6304 23.4825L84.9884 23.9246C88.9151 28.8293 91.4417 34.8287 92.4313 41.0175C92.526 41.6279 92.6103 42.2279 92.684 42.8383L92.7261 43.2067C92.8629 44.5644 92.8735 45.9222 92.8735 47.2905V47.6694C92.8735 49.7534 92.7577 51.7742 92.3681 53.8266L92.2839 54.2687C91.0733 60.5627 88.5993 66.2884 84.6304 71.3194L84.4304 71.5826C82.5986 73.8981 80.451 76.0663 78.0718 77.7924C77.8086 77.9819 77.5665 78.1713 77.3138 78.3608C75.7663 79.5291 74.0924 80.4763 72.3975 81.392L72.0396 81.5815C68.6392 83.3708 64.8598 84.4549 61.091 85.1074L60.4909 85.2127C58.2486 85.581 55.922 85.6232 53.6586 85.5705L53.3428 85.56C46.8157 85.4126 40.4887 83.3287 34.9197 79.9922C32.8142 78.6871 30.9087 77.1188 29.0348 75.5085L28.6453 75.1822C27.8663 74.5191 27.2241 73.7929 26.5819 72.9824C26.2766 72.6035 25.9608 72.2457 25.6344 71.8983C23.4342 69.4249 21.7393 66.4147 20.3602 63.4256L20.2128 63.0993C17.9388 58.184 16.8861 52.7636 16.8966 47.3536V46.9852C16.9177 40.2597 18.76 33.6919 22.1182 27.861C23.4237 25.6507 24.9607 23.6615 26.7082 21.7774C26.8977 21.5775 27.0767 21.367 27.2557 21.1565C31.3614 16.4517 37.1094 13.1047 42.9732 11.0944C45.2471 10.3787 47.5632 9.82085 49.9424 9.5472L50.2898 9.5051C57.8591 8.68413 65.4704 9.99978 72.2922 13.3678ZM39.5412 18.1147L39.0991 18.3778C39.1938 19.4198 39.3307 20.4513 39.5202 21.4722L39.6044 21.9248C39.6886 22.3984 39.7728 22.8826 39.8676 23.3667L40.0466 24.3877C40.215 25.2929 40.3834 26.1875 40.5413 27.0927C40.6466 27.6821 40.7519 28.261 40.8677 28.8398C41.0361 29.8082 41.2151 30.7765 41.3941 31.7448C41.4678 32.1237 41.5309 32.4921 41.6046 32.871C41.6994 33.3972 41.7941 33.913 41.8889 34.4392L41.9836 34.9129L42.0573 35.3444L42.131 35.7233C42.1836 36.0391 42.1836 36.0391 42.3521 36.3338C42.8469 36.1127 43.1627 35.8601 43.5311 35.4602C43.9838 34.9971 44.447 34.5971 44.9734 34.2182C45.6472 33.6919 46.0999 33.1236 46.5631 32.4184C47.121 31.5659 47.7211 30.7659 48.3422 29.966C49.1423 28.924 49.9319 27.8715 50.7109 26.8085C51.4794 25.7665 52.2584 24.735 53.048 23.7036C53.9849 22.4826 54.8903 21.2512 55.7851 19.9987C56.3326 19.2409 56.88 18.4936 57.4274 17.7463L57.6906 17.3885C58.2275 16.6622 58.7749 15.957 59.3434 15.2518L59.5434 14.9677V14.6624C53.1006 13.1679 45.2261 14.8729 39.5412 18.1147ZM64.8072 16.0518C64.5335 16.357 64.3229 16.6306 64.1124 16.9674C63.9755 17.1779 63.8387 17.3779 63.7018 17.5779L63.4807 17.8937C63.1123 18.4304 62.7122 18.9567 62.3122 19.4724L61.7963 20.1355L61.2489 20.8512C60.0067 22.4616 58.7749 24.0719 57.6169 25.7349C56.68 27.0716 55.6799 28.3662 54.6798 29.6608L54.4271 29.9871L54.1639 30.3239C54.1007 30.4186 54.0376 30.5133 53.9639 30.6081V30.9133L54.2271 30.9238C56.8484 30.9975 59.0697 31.3343 61.5016 32.3658L61.9016 32.5342L62.249 32.6815C62.7649 32.8078 63.1965 32.6921 63.7229 32.6184C64.0913 32.6079 64.4703 32.5973 64.8388 32.5868H65.1651C65.5125 32.5868 65.8705 32.5763 66.2179 32.5763L66.9758 32.5658C67.5022 32.5658 68.0391 32.5552 68.576 32.5552C69.8183 32.5342 71.071 32.5237 72.3133 32.5131L73.1555 32.5026C75.861 32.471 78.5561 32.4184 81.2616 32.3658C82.1775 32.3447 83.0934 32.3342 84.0093 32.3131L84.1672 31.9974C84.0514 31.7237 84.0514 31.7237 83.8619 31.4396L83.6514 31.0922C83.5777 30.9659 83.4935 30.8501 83.4198 30.7238L83.1776 30.3449C79.9352 25.1771 75.6505 21.0302 70.2815 18.1042C67.818 16.7885 67.818 16.7885 65.1756 15.9781L64.8072 16.0518ZM34.2985 21.6301C30.2455 24.5561 26.9083 29.0188 24.8554 33.5446C23.929 35.6602 23.1921 37.7968 22.6867 40.0492L22.5709 40.5544C22.3709 41.5227 22.3499 42.4594 22.3709 43.4593L22.8131 43.6698C23.8553 44.1961 24.908 44.7223 25.9503 45.2486C30.0665 47.3115 30.0665 47.3115 34.2143 49.3008C34.646 49.5113 35.0776 49.7218 35.5092 49.9323L35.9619 50.1533C36.2461 50.2901 36.5198 50.427 36.8041 50.5638C37.4673 50.8901 38.0463 51.1322 38.7938 51.1953L38.7517 50.9427C38.6253 49.7639 38.6148 48.5851 38.6148 47.4062V45.7222C38.6359 45.2802 38.678 44.8592 38.7306 44.4276C38.8254 43.5435 38.6674 42.7857 38.4569 41.9226C38.3832 41.5964 38.3095 41.2701 38.2358 40.9333L38.1306 40.4175C37.9411 39.5545 37.7937 38.6809 37.6358 37.8073L37.541 37.2705C37.4884 36.9021 37.4252 36.5337 37.362 36.1759C37.1936 35.2076 37.0252 34.2393 36.8567 33.2709L36.7514 32.7026C36.3619 30.4291 35.9303 28.1662 35.4882 25.9033C35.3934 25.3771 35.2881 24.8508 35.1934 24.3245L35.0249 23.472L34.9513 23.1141C34.846 22.5774 34.7302 22.1037 34.4565 21.6301H34.2985ZM48.3843 37.8389C46.5736 39.2387 45.1734 40.8912 44.247 42.9962C44.1312 43.3014 44.0154 43.6067 43.8996 43.9224L43.7522 44.3118C43.1732 46.0169 43.2574 48.0167 43.6048 49.7639C44.0786 51.8479 45.0787 53.6898 46.4683 55.3001C47.9737 56.921 49.7634 57.9419 51.8373 58.6366C53.7744 59.1418 55.9115 59.1418 57.838 58.6261C59.933 58.0051 61.6911 56.9105 63.2491 55.3949C64.6598 53.8898 65.7126 51.9321 66.2179 49.9323C66.5863 48.1851 66.6074 45.9327 66.0705 44.2066C65.1862 42.0384 64.0808 40.0597 62.2701 38.523C60.5014 37.1653 58.6381 36.2706 56.4273 35.9233C53.5638 35.6075 50.7846 36.239 48.3843 37.8389ZM73.4397 37.3442H73.0502C71.4395 37.3652 69.8288 37.3968 68.2076 37.4179C68.4181 37.9546 68.6497 38.4177 68.955 38.9124C70.4815 41.4174 71.1658 44.1855 71.3448 47.101C71.3448 47.701 71.3448 48.2483 71.1974 48.8377C71.0921 49.3218 71.05 49.6271 71.1553 50.1112C71.7343 50.8375 72.4396 51.3953 73.166 51.9742C73.4502 52.2057 73.745 52.4373 74.0293 52.6794L74.4504 53.0162C74.9136 53.3951 75.3557 53.8055 75.7979 54.216C76.3769 54.7528 76.9664 55.2685 77.577 55.7632C78.2824 56.3316 78.9351 56.921 79.5983 57.5315C80.2299 58.1209 80.8932 58.6577 81.5564 59.1944C82.1354 59.6681 82.6723 60.1838 83.2092 60.6995C83.6514 61.1205 84.0409 61.3837 84.6304 61.5731C87.3886 56.5 88.0203 50.8375 87.8834 45.1644C87.7782 42.4594 87.0728 39.8492 86.3254 37.26C82.0302 37.2389 77.7349 37.281 73.4397 37.3442ZM22.0656 48.8798C21.8656 49.2061 21.8656 49.2061 21.9288 49.7007C22.234 53.1214 22.9394 56.5316 24.2343 59.7102L24.3817 60.068C25.7081 63.3414 27.6031 66.3831 29.9612 69.0039C31.5614 68.3829 33.1511 67.7409 34.7091 67.0146C35.9198 66.4568 37.1515 65.92 38.3832 65.4043C40.1939 64.6465 41.9941 63.8571 43.7943 63.0677L44.1102 62.9309L44.9313 62.573C45.4682 62.3415 45.9946 62.1099 46.5315 61.8784C46.0367 61.3521 45.4893 60.9206 44.9208 60.489L44.3944 60.0891L44.1628 59.9102C43.9522 59.7523 43.7522 59.5839 43.5522 59.4155C43.1416 59.1102 42.7626 58.8787 42.31 58.6577L41.8257 58.4156L41.3098 58.1524L40.7519 57.8788C40.3729 57.6893 39.9834 57.4999 39.6044 57.2999C39.1201 57.0684 38.6359 56.8263 38.1621 56.5842C35.9829 55.5001 33.7932 54.4371 31.5825 53.4266C30.4981 52.932 29.4243 52.4162 28.3716 51.8794L27.9294 51.6584L27.5504 51.4584C26.6345 51.0059 25.7081 50.5533 24.7817 50.1112L24.3395 49.9007C23.5921 49.5429 22.8341 49.1955 22.0656 48.8798ZM69.2919 55.3738C69.0813 55.6896 68.8813 56.0158 68.6918 56.3421C67.7022 57.9314 66.4495 59.3523 64.9651 60.489L64.5019 60.7206L64.1861 60.9521C64.0387 61.7205 63.986 62.4888 63.9439 63.2677L63.9229 63.6255C63.9018 64.015 63.8702 64.4044 63.8492 64.7938L63.8071 65.6253C63.765 66.2042 63.7334 66.7831 63.7018 67.362C63.6597 67.9409 63.6281 68.5303 63.586 69.1197C63.386 72.5298 63.1965 75.9505 63.1017 79.3712C63.3649 79.3291 63.6386 79.287 63.9018 79.2344L64.3545 79.1607C65.0493 79.0133 65.6915 78.7818 66.3442 78.5187L66.7653 78.3608C69.0708 77.4451 71.2921 76.3189 73.3239 74.8875L73.6187 74.677C75.0294 73.6771 76.3348 72.6035 77.5665 71.4036C77.8192 71.1721 78.0613 70.93 78.3139 70.6985C80.5247 68.625 80.5247 68.625 81.9986 66.0569L81.7038 65.8358C80.809 65.1201 79.9562 64.3728 79.1246 63.5834C78.335 62.8361 77.5244 62.1204 76.6717 61.4363C76.24 61.0784 75.8295 60.7101 75.4084 60.3312C74.7241 59.6996 74.0082 59.0997 73.2713 58.5103C72.8712 58.1735 72.4712 57.8262 72.0817 57.4683C71.2816 56.7421 70.4815 56.0158 69.6077 55.3738H69.2919ZM57.5327 63.6676C57.08 63.7308 56.6694 63.7308 56.2062 63.7097C54.2692 63.6992 52.669 64.4991 50.9425 65.2885C49.6266 65.899 48.2896 66.4673 46.9526 67.0357C46.2157 67.362 45.4682 67.6777 44.7313 67.9935L44.2997 68.1829C43.089 68.7092 41.8783 69.2355 40.6782 69.7722C38.4043 70.7721 36.1198 71.7404 33.8353 72.7193C36.8883 75.8242 41.3204 77.9714 45.4471 79.2238L45.7946 79.3291C46.6578 79.5817 47.5211 79.8027 48.3948 79.9922L48.7423 80.0764C50.7319 80.4869 52.7216 80.4974 54.7534 80.4974H55.1535C55.5325 80.4974 55.9115 80.4974 56.2905 80.4869H56.6379C57.1748 80.4763 57.638 80.4448 58.1433 80.3079C58.4486 76.9083 58.6065 73.5192 58.7644 70.1196C58.796 69.3828 58.8381 68.6355 58.8697 67.8988C58.9434 66.4568 59.0065 65.0254 59.0802 63.5834C58.3012 63.5729 58.3012 63.5729 57.5327 63.6676Z" fill="#082580"/>
</g>
<path d="M30.5823 18.0717L30.8876 18.2191L25.7818 23.3343V22.8712C25.9713 22.6081 25.9713 22.6081 26.245 22.3239L26.5503 21.9976L26.8767 21.6608L27.2135 21.303C28.2874 20.1768 29.4243 19.1137 30.5823 18.0717Z" fill="#A9B3D2"/>
</svg>
