<svg width="31" height="31" viewBox="0 0 31 31" fill="none" xmlns="http://www.w3.org/2000/svg">
<g clip-path="url(#clip0_2_23)">
<path d="M14.625 17.0417C15.2187 17.0417 15.8066 16.9247 16.355 16.6975C16.9035 16.4703 17.4019 16.1373 17.8217 15.7175C18.2415 15.2977 18.5745 14.7994 18.8017 14.2509C19.0289 13.7024 19.1458 13.1145 19.1458 12.5208C19.1458 11.9271 19.0289 11.3393 18.8017 10.7908C18.5745 10.2423 18.2415 9.74392 17.8217 9.32412C17.4019 8.90432 16.9035 8.57132 16.355 8.34413C15.8066 8.11693 15.2187 8 14.625 8C13.426 8 12.2761 8.4763 11.4283 9.32412C10.5805 10.1719 10.1042 11.3218 10.1042 12.5208C10.1042 13.7198 10.5805 14.8697 11.4283 15.7175C12.2761 16.5654 13.426 17.0417 14.625 17.0417ZM3 30.475V31.25H26.25V30.475C26.25 27.5817 26.25 26.135 25.6868 25.0293C25.1915 24.0572 24.4011 23.2668 23.429 22.7715C22.3233 22.2083 20.8767 22.2083 17.9833 22.2083H11.2667C8.37333 22.2083 6.92667 22.2083 5.821 22.7715C4.84887 23.2668 4.05851 24.0572 3.56317 25.0293C3 26.135 3 27.5817 3 30.475Z" fill="black" stroke="black" stroke-width="2" stroke-linecap="round" stroke-linejoin="round"/>
</g>
<defs>
<clipPath id="clip0_2_23">
<rect width="31" height="31" fill="white"/>
</clipPath>
</defs>
</svg>
